<svg width="27" height="28" viewBox="0 0 27 28" fill="none" xmlns="http://www.w3.org/2000/svg">
<path d="M0.767578 5.74994C0.767578 5.33573 1.10336 4.99994 1.51758 4.99994H26.0176C26.4318 4.99994 26.7676 5.33573 26.7676 5.74994C26.7676 6.16415 26.4318 6.49994 26.0176 6.49994H1.51758C1.10336 6.49994 0.767578 6.16415 0.767578 5.74994Z" fill="#F83030"/>
<path fill-rule="evenodd" clip-rule="evenodd" d="M24.0343 6.33331H22.5301L21.0773 25.704C21.0577 25.9649 20.8403 26.1666 20.5787 26.1666H6.9566C6.69496 26.1666 6.47756 25.9649 6.45799 25.704L5.00519 6.33331H3.50098L4.9622 25.8162C5.04047 26.8598 5.91005 27.6666 6.9566 27.6666H20.5787C21.6252 27.6666 22.4948 26.8598 22.5731 25.8162L24.0343 6.33331Z" fill="#F83030"/>
<path d="M9.51758 1.99994C9.51758 1.30958 10.0772 0.749939 10.7676 0.749939H16.7676C17.4579 0.749939 18.0176 1.30958 18.0176 1.99994V5.24994H9.51758V1.99994Z" stroke="#F83030" stroke-width="1.5"/>
</svg>
