<svg width="36" height="24" viewBox="0 0 36 24" fill="none" xmlns="http://www.w3.org/2000/svg">
<path d="M27.708 9.33702L27.7774 10.01H28.454H28.614C32.2796 10.01 35.248 12.974 35.248 16.625C35.248 20.2769 32.2796 23.24 28.614 23.24H7.384C3.71836 23.24 0.75 20.2769 0.75 16.625C0.75 12.9741 3.71836 10.01 7.385 10.01H7.545H8.22161L8.29104 9.33696C8.53847 6.93838 9.50214 4.79752 11.111 3.26011C12.7133 1.72903 15.0035 0.75 17.999 0.75C20.9928 0.75 23.2843 1.73623 24.888 3.27194C26.4986 4.8142 27.4621 6.95576 27.708 9.33702Z" stroke="#75778B" stroke-width="1.5"/>
</svg>
