<svg width="8" height="14" viewBox="0 0 8 14" fill="none" xmlns="http://www.w3.org/2000/svg">
<path d="M7.905 9.135C7.905 9.615 7.785 10.075 7.545 10.515C7.305 10.945 6.95 11.305 6.48 11.595C6.02 11.885 5.465 12.05 4.815 12.09V13.305H4.005V12.09C3.095 12.01 2.355 11.72 1.785 11.22C1.215 10.71 0.925 10.065 0.915 9.285H2.37C2.41 9.705 2.565 10.07 2.835 10.38C3.115 10.69 3.505 10.885 4.005 10.965V7.215C3.335 7.045 2.795 6.87 2.385 6.69C1.975 6.51 1.625 6.23 1.335 5.85C1.045 5.47 0.9 4.96 0.9 4.32C0.9 3.51 1.18 2.84 1.74 2.31C2.31 1.78 3.065 1.485 4.005 1.425V0.179999H4.815V1.425C5.665 1.495 6.35 1.77 6.87 2.25C7.39 2.72 7.69 3.335 7.77 4.095H6.315C6.265 3.745 6.11 3.43 5.85 3.15C5.59 2.86 5.245 2.67 4.815 2.58V6.24C5.475 6.41 6.01 6.585 6.42 6.765C6.84 6.935 7.19 7.21 7.47 7.59C7.76 7.97 7.905 8.485 7.905 9.135ZM2.295 4.245C2.295 4.735 2.44 5.11 2.73 5.37C3.02 5.63 3.445 5.845 4.005 6.015V2.55C3.485 2.6 3.07 2.77 2.76 3.06C2.45 3.34 2.295 3.735 2.295 4.245ZM4.815 10.98C5.355 10.92 5.775 10.725 6.075 10.395C6.385 10.065 6.54 9.67 6.54 9.21C6.54 8.72 6.39 8.345 6.09 8.085C5.79 7.815 5.365 7.6 4.815 7.44V10.98Z" fill="#75778B"/>
</svg>
