<svg width="16" height="20" viewBox="0 0 16 20" fill="none" xmlns="http://www.w3.org/2000/svg">
<path d="M7.7 10.4C9.19117 10.4 10.4 9.19117 10.4 7.7C10.4 6.20883 9.19117 5 7.7 5C6.20883 5 5 6.20883 5 7.7C5 9.19117 6.20883 10.4 7.7 10.4Z" stroke="#75778B" stroke-width="1.5" stroke-linecap="round" stroke-linejoin="round"/>
<path d="M7.9998 1C6.09025 1 4.2589 1.75857 2.90864 3.10883C1.55837 4.45909 0.799805 6.29044 0.799805 8.2C0.799805 9.9028 1.1616 11.017 2.1498 12.25L7.9998 19L13.8498 12.25C14.838 11.017 15.1998 9.9028 15.1998 8.2C15.1998 6.29044 14.4412 4.45909 13.091 3.10883C11.7407 1.75857 9.90936 1 7.9998 1V1Z" stroke="#75778B" stroke-width="1.5" stroke-linecap="round" stroke-linejoin="round"/>
</svg>
